<svg width="630" height="367" viewBox="0 0 630 367" fill="none" xmlns="http://www.w3.org/2000/svg">
<path d="M1 366.5V277.5C1 277.5 1.59194 274.5 3 274.5C4.40806 274.5 5 277.5 5 277.5H7C7 277.5 7.59194 274.5 9 274.5C10.4081 274.5 11 277.5 11 277.5H13C13 277.5 13.5919 274.5 15 274.5C16.4081 274.5 17 277.5 17 277.5H21C21 277.5 20.7271 269.729 22 265C22.8199 261.954 23.3099 260.164 25 257.5C27.2943 253.884 29.4707 252.426 33 250C36.2385 247.774 42 245.5 42 245.5C42 245.5 41.1014 241.664 42 239.5C43.0074 237.074 47 235 47 235L48 213.5L49 235C49 235 52.9926 237.074 54 239.5C54.8986 241.664 54 245.5 54 245.5C54 245.5 59.7615 247.774 63 250C66.5293 252.426 68.7057 253.884 71 257.5C72.6901 260.164 73.1801 261.954 74 265C75.2729 269.729 75 277.5 75 277.5H79V251V181.5C79 181.5 73.5654 180.155 73.5 177.5C73.4546 175.658 76 173.5 76 173.5V155.5C76 155.5 73 154.157 73 152.5C73 150.843 76 149.5 76 149.5C76 149.5 75.5879 144.597 76 141.5C76.3998 138.495 76.6723 136.725 78 134C79.8183 130.268 81.8829 128.742 85 126C87.8467 123.496 93 120.5 93 120.5C93 120.5 92.4836 116.571 94 115C94.9098 114.058 97 113.5 97 113.5L98 96L99 113.5C99 113.5 101.09 114.058 102 115C103.516 116.571 103 120.5 103 120.5C103 120.5 108.153 123.496 111 126C114.117 128.742 116.182 130.268 118 134C119.328 136.725 119.6 138.495 120 141.5C120.412 144.597 120 149.5 120 149.5C120 149.5 123 150.843 123 152.5C123 154.157 120 155.5 120 155.5V173.5C120 173.5 122.545 175.658 122.5 177.5C122.435 180.155 117 181.5 117 181.5V251L125 250V214.5C125 214.5 122.258 213.884 122 212.5C121.808 211.466 123 210 123 210V198C123 198 121 197.476 121 196.5C121 195.524 123 195 123 195C123 195 120.558 188.205 122 185C122.578 183.716 123.131 183.108 124 182C125.363 180.261 126.346 179.464 128 178C130.193 176.059 134 173.5 134 173.5C134 173.5 133.266 171.153 134 170C134.611 169.039 136.5 168.5 136.5 168.5L137.5 155.5L138.5 168.5C138.5 168.5 140.389 169.039 141 170C141.734 171.153 141 173.5 141 173.5C141 173.5 144.807 176.059 147 178C148.654 179.464 149.637 180.261 151 182C151.869 183.108 152.422 183.716 153 185C154.442 188.205 152 195 152 195C152 195 154 195.524 154 196.5C154 197.476 152 198 152 198V210C152 210 153.192 211.466 153 212.5C152.742 213.884 150 214.5 150 214.5V245.5L158 244C158 244 154.797 232.06 156 224.5C156.951 218.519 158.066 214.989 161.5 210C164.792 205.218 167.92 203.568 172.5 200C176.943 196.539 184.5 192 184.5 192C184.5 192 183.759 188.223 184.5 186C185.548 182.856 190.5 180 190.5 180L192.5 150.5L194.5 180C194.5 180 199.506 182.839 200.5 186C201.144 188.049 200.5 191.5 200.5 191.5C200.5 191.5 208.023 196.404 212.5 200C217.026 203.636 220.208 205.218 223.5 210C226.934 214.989 228.074 218.515 229 224.5C230.141 231.873 227 243.5 227 243.5H233V219C233 219 230.782 216.411 231 214.5C231.367 211.289 238.5 211 238.5 211C238.5 211 234.474 202.686 233 197C231.468 191.092 231.274 187.597 231 181.5C230.675 174.272 230.783 170.132 232 163C233.268 155.57 234.05 151.201 237.5 144.5C240.503 138.667 243.225 135.977 247.5 131C251.998 125.763 254.835 123.08 260 118.5C266.253 112.955 270.153 110.292 277 105.5C283.834 100.717 295 94 295 94C295 94 293.303 83.9331 296 78.5C298.027 74.4169 300.355 72.738 304 70C307.84 67.1152 312 65 312 65L315 0L318 65C318 65 322.16 67.1152 326 70L326.285 70.2143C329.767 72.8282 332.027 74.5245 334 78.5C336.697 83.9331 335 94 335 94C335 94 346.166 100.717 353 105.5C359.847 110.292 363.747 112.955 370 118.5C375.165 123.08 378.002 125.763 382.5 131C386.775 135.977 389.497 138.667 392.5 144.5C395.95 151.201 396.732 155.57 398 163C399.217 170.132 399.325 174.272 399 181.5C398.726 187.597 398.532 191.092 397 197C395.526 202.686 391.5 211 391.5 211C391.5 211 398.633 211.289 399 214.5C399.218 216.411 397 219 397 219V243.5H403C403 243.5 399.859 231.873 401 224.5C401.926 218.515 403.066 214.989 406.5 210C409.792 205.218 412.974 203.636 417.5 200C421.977 196.404 429.5 191.5 429.5 191.5C429.5 191.5 428.856 188.049 429.5 186C430.494 182.839 435.5 180 435.5 180L437.5 150.5L439.5 180C439.5 180 444.452 182.856 445.5 186C446.241 188.223 445.5 192 445.5 192C445.5 192 453.057 196.539 457.5 200C462.08 203.568 465.208 205.218 468.5 210C471.934 214.989 473.049 218.519 474 224.5C475.203 232.06 472 244 472 244L480 245.5V214.5C480 214.5 477.258 213.884 477 212.5C476.808 211.466 478 210 478 210V198C478 198 476 197.476 476 196.5C476 195.524 478 195 478 195C478 195 475.558 188.205 477 185C477.578 183.716 478.131 183.108 479 182C480.363 180.261 481.346 179.464 483 178C485.193 176.059 489 173.5 489 173.5C489 173.5 488.266 171.153 489 170C489.611 169.039 491.5 168.5 491.5 168.5L492.5 155.5L493.5 168.5C493.5 168.5 495.389 169.039 496 170C496.734 171.153 496 173.5 496 173.5C496 173.5 499.807 176.059 502 178C503.654 179.464 504.637 180.261 506 182C506.869 183.108 507.422 183.716 508 185C509.442 188.205 507 195 507 195C507 195 509 195.524 509 196.5C509 197.476 507 198 507 198V210C507 210 508.192 211.466 508 212.5C507.742 213.884 505 214.5 505 214.5V250L513 251V181.5C513 181.5 507.565 180.155 507.5 177.5C507.455 175.658 510 173.5 510 173.5V155.5C510 155.5 507 154.157 507 152.5C507 150.843 510 149.5 510 149.5C510 149.5 509.588 144.597 510 141.5C510.4 138.495 510.672 136.725 512 134C513.818 130.268 515.883 128.742 519 126C521.847 123.496 527 120.5 527 120.5C527 120.5 526.484 116.571 528 115C528.91 114.058 531 113.5 531 113.5L532 96L533 113.5C533 113.5 535.09 114.058 536 115C537.516 116.571 537 120.5 537 120.5C537 120.5 542.153 123.496 545 126C548.117 128.742 550.182 130.268 552 134C553.328 136.725 553.6 138.495 554 141.5C554.412 144.597 554 149.5 554 149.5C554 149.5 557 150.843 557 152.5C557 154.157 554 155.5 554 155.5V173.5C554 173.5 556.545 175.658 556.5 177.5C556.435 180.155 551 181.5 551 181.5V251V277.5H555C555 277.5 554.727 269.729 556 265C556.82 261.954 557.31 260.164 559 257.5C561.254 253.948 563.393 252.478 566.813 250.128L567 250C570.238 247.774 576 245.5 576 245.5C576 245.5 575.101 241.664 576 239.5C577.007 237.074 581 235 581 235L582 213.5L583 235C583 235 586.993 237.074 588 239.5C588.899 241.664 588 245.5 588 245.5C588 245.5 593.762 247.774 597 250L597.187 250.128C600.607 252.478 602.746 253.948 605 257.5C606.69 260.164 607.18 261.954 608 265C609.273 269.729 609 277.5 609 277.5H613C613 277.5 613.592 274.5 615 274.5C616.408 274.5 617 277.5 617 277.5H619C619 277.5 619.592 274.5 621 274.5C622.408 274.5 623 277.5 623 277.5H625C625 277.5 625.592 274.5 627 274.5C628.408 274.5 629 277.5 629 277.5V366.5" stroke="#0000FF"/>
</svg>
